. 
 
http://www.torrenting.com          :     Once & For all ;)


               www . Torrenting . Com 

(((((((((((((= Enjoy No RAR releases =))))))))))))))))))))


...................................NFO:....................................

.                                                                                                     
       
     
     
       
       
     
     
                                         
                                         
                EXVID                    
                                         
         
                                         
         Filled the Archives             
                                         
         
                                         
                With:                    
                                         
         
                                         
                                    
     E240                           
                                    
     SP               (C) 2009      
                                         
     
     
     
                                                                                  
                                                                                   
               Fathers.Day.1997.iNTERNAL.DVDRip.XviD-EXViDiNT                       
                                                                                   
                                                                                  
     
                                                                                               
EXViD aims to iNTERNAL those releases which have been lost in the archives.
EXViD aims to PRE non-internal releases which have poor sources and are likely skipped by others. 
http://www.imdb.com/title/tt0119109/
Subtitles: EN, FR, ES
Date: 2012.01

Director: Ivan Reitman

Genres: Comedy | Romance

Plot:
Jack Lawrence is a smart allec lawyer who is one day visited by an ex-girlfriend who tells him
her kid was his. Enter Dale Putley, a depressed goofball who is also a writer, meets with the
same ex-girlfriend who tells him her kid is his. One day Jack and Dale meet and discover what had
happened: they've been told the same story and now there's a question of who the real father is.
They learn their son is following a rock band called Sugar Ray around. So Jack and Dale hit the
road to Sacremento and find their drunk, lovestruck son. Soon after they bring him back to their
hotel room, their son escapes and Jack and Dale must use teamwork to find him again, bring him
home, and find out which one of them is the real father.

Cast:
Robin Williams	...	Dale Putley
Billy Crystal	...	Jack Lawrence
Julia Louis-Dreyfus	...	Carrie Lawrence
Nastassja Kinski	...	Collette Andrews
Charlie Hofheimer	...	Scott Andrews
Bruce Greenwood	...	Bob Andrews
Dennis Burkley	...	Calvin the Trucker
Haylie Johnson	...	Nikki Trainor
Charles Rocket	...	Russ Trainor
Patti D'Arbanville	...	Shirley Trainor
Jared Harris	...	Lee
Louis Lombardi	...	Matt
Mark McGrath	...	Sugar Ray Band
Craig Bullock	...	Sugar Ray Band
Charles Stan Frazier	...	Sugar Ray Band

Stats:
Format                                   : AVI
Format/Info                              : Audio Video Interleave
File size                                : 702 MiB
Duration                                 : 1h 39mn
Overall bit rate mode                    : Variable
Overall bit rate                         : 989 Kbps

Video
ID                                       : 0
Format                                   : MPEG-4 Visual
Format profile                           : Advanced Simple@L5
Format settings, BVOP                    : 2
Format settings, QPel                    : No
Format settings, GMC                     : No warppoints
Format settings, Matrix                  : Default (H.263)
Codec ID                                 : XVID
Codec ID/Hint                            : XviD
Duration                                 : 1h 39mn
Bit rate                                 : 844 Kbps
Width                                    : 640 pixels
Height                                   : 272 pixels
Display aspect ratio                     : 2.35:1
Frame rate                               : 23.976 fps
Color space                              : YUV
Chroma subsampling                       : 4:2:0
Bit depth                                : 8 bits
Scan type                                : Progressive
Compression mode                         : Lossy
Bits/(Pixel*Frame)                       : 0.202
Stream size                              : 599 MiB (85%)
Writing library                          : XviD 64

Audio
ID                                       : 1
Format                                   : MPEG Audio
Format version                           : Version 1
Format profile                           : Layer 3
Mode                                     : Joint stereo
Mode extension                           : MS Stereo
Codec ID                                 : 55
Codec ID/Hint                            : MP3
Duration                                 : 1h 39mn
Bit rate mode                            : Variable
Bit rate                                 : 132 Kbps
Channel(s)                               : 2 channels
Sampling rate                            : 48.0 KHz
Compression mode                         : Lossy
Stream size                              : 93.5 MiB (13%)
Alignment                                : Aligned on interleaves
Interleave, duration                     : 24 ms (0.58 video frame)
Interleave, preload duration             : 244 ms



Release notes:
Enjoy!

Looking for:
75TB+ Archives
DUTCH/FLEMiSH Archives
                                                                                                    
Greets: CRBS EPiSODE FiCO FLS iLS KLASSiGER LiPSYNC MADE NODLABS RUNNER SPRiNTER      
   

                                                                    ASCII DONE BY XX^NFO 2oo9